<svg id="Layer_1" data-name="Layer 1" xmlns="http://www.w3.org/2000/svg" viewBox="0 0 30 30"><defs><style>.cls-1{fill:#3155a7;}.cls-2{fill:#6493ff;}</style></defs><polygon class="cls-1" points="22.58 9.6 22.58 25.77 15.53 29.81 8.36 25.66 8.36 18.8 15.56 22.98 15.54 13.57 22.58 9.6"/><polygon class="cls-1" points="8.73 8.3 22.65 0.19 29.62 4.25 29.61 12.53 23.66 15.97 23.67 7.68 15.64 12.38 8.73 8.3"/><polygon class="cls-1" points="14.44 21.01 0.38 12.9 0.4 4.8 7.57 0.67 13.59 4.17 6.41 8.3 14.43 12.92 14.44 21.01"/><polygon class="cls-2" points="15.53 29.81 15.54 13.57 22.58 9.6 22.58 25.77 15.53 29.81"/><polygon class="cls-2" points="15.64 12.38 29.62 4.25 22.65 0.19 8.73 8.3 15.64 12.38"/><polygon class="cls-2" points="0.4 4.8 14.43 12.92 14.44 21.01 0.38 12.9 0.4 4.8"/></svg>